<?xml version="1.0" encoding="utf-8"?>
<!-- Generator: Adobe Illustrator 23.0.4, SVG Export Plug-In . SVG Version: 6.00 Build 0)  -->
<svg version="1.1" id="图层_1" xmlns="http://www.w3.org/2000/svg" xmlns:xlink="http://www.w3.org/1999/xlink" x="0px" y="0px"
	 viewBox="0 0 256 256" style="enable-background:new 0 0 256 256;" xml:space="preserve">
<style type="text/css">
	.st0{fill:#FFFFFF;}
	.st1{fill:#2B83FF;}
</style>
<rect class="st0" width="256" height="256"/>
<title>Logo_openingsource</title>
<path class="st1" d="M72.7,134.5c4.8-6.9,9.9-14.2,14.8-21.4c1.5-2.1,2.7-3.9,4.2-6c0.9-1.8-0.9-2.1-1.8-2.7
	c-1.2-0.6-1.5,0.3-1.8,0.9c-6.3,9-12.7,18.4-19,27.4l0,0c0,0.2-0.1,0.4-0.1,0.5c0,1.3,0.9,2.3,2.2,2.4
	C71.7,135.7,72,135.1,72.7,134.5z"/>
<path class="st1" d="M101.6,110.8c1.2-1.5-0.9-1.8-1.8-2.4c-1.2-0.6-1.5,0.3-1.8,0.9c-8.7,12.7-17.5,25.6-26.2,38.6
	c-0.6,1.2,0.9,3,2.4,3v0c0.6-0.3,0.9-0.9,1.5-1.8c5.5-7.8,10.6-15.7,16-23.5C94.9,120.7,98.2,115.6,101.6,110.8z"/>
<path class="st1" d="M104.9,126.4c1.2-1.8-0.9-2.1-1.8-2.7c-0.9-0.9-1.2,0-1.5,0.6c-6.3,9.3-12.7,18.4-19,27.7c-0.9,0.9,0.6,3,2.1,3
	v0.1c0.9,0,0.9-0.6,1.2-0.9c4.5-6.3,8.7-13,13.3-19.3C101,131.8,103.1,129.1,104.9,126.4z"/>
<path class="st1" d="M78.6,99.6c-0.6,0-0.9,0.6-1.2,0.9c-3,4.5-6,8.7-9,13.3c-1.2,1.4-2.3,2.9-3.3,4.5c-0.9,1.5,0.9,1.8,1.8,2.4
	c1.2,0.9,1.5,0,1.8-0.6c3.9-5.7,8.1-11.8,12-17.5C81.3,101.8,80.1,99.6,78.6,99.6z"/>
<path class="st1" d="M200.1,93.6c-28-4.3-55.8-8.7-83.8-13.3c-2.1-0.3-3.9-0.6-5.7,0c-16.9,4.8-34.1,9.3-50.9,14.2
	c-2.1,0.6-2.7,1.2-2.7,3v66.3c0,0.9,0,1.5,1.5,1.8c16,2.4,32.2,5.1,48.2,7.5c2.7,0.3,5.4,1.2,8.4,0.9c9.7-0.9,19.3-2.1,28.9-3
	c18.7-2.1,37.1-3.9,55.5-5.7c2.1-0.3,2.4-0.9,2.4-2.4v-33.5c0-11.2,0-22.3,0.3-33.7C202.2,94.5,201.9,93.9,200.1,93.6z M112.7,127.1
	v39.5c0,1.5-0.3,2.1-2.4,1.8c-15.1-2.4-30.4-4.8-45.5-7.2c-1.8-0.3-2.1-0.9-2.1-2.1v-57.9c0-1.2,0.6-1.8,2.1-2.4
	c15.1-4.2,30.1-8.4,45.5-12.7c2.7-0.6,2.7-0.6,2.7,1.5C112.7,100.8,112.7,113.8,112.7,127.1z M195.9,157c0,1.8-0.6,2.4-3,2.7
	c-14.8,1.5-29.5,3-44,4.5c-9.3,0.9-18.7,1.8-27.7,3c-1.8,0.3-2.4-0.3-2.4-1.8v-76c0-1.8,0.3-2.4,2.7-2.1
	c23.8,3.9,47.6,7.5,71.4,11.1c2.1,0.3,3,0.9,3,3V157z"/>
<path class="st1" d="M106.7,137.9c-0.6-0.3-0.9,0.3-1.2,0.6l-12.7,18.1c-1.2,1.5,0.9,1.8,1.8,2.4c0.9,0.9,1.2-0.3,1.5-0.9
	c4.2-5.7,8.1-11.5,12.1-17.2v0c0-0.5,0.2-1,0.6-1.3C108.4,138.8,107.6,138.2,106.7,137.9z"/>
<path class="st1" d="M167.6,148.2h-3c-4.2,0-8.1,0.3-12.4,0.6c-2.1,0-1.5,1.2-1.8,2.4c-0.3,1.2,0.9,1.2,1.8,1.2
	c5.4-0.3,10.5-0.6,15.7-0.6c2.4,0,2.4-0.9,2.4-2.4C170.3,147.6,168.8,148.2,167.6,148.2z"/>
<path class="st1" d="M148.3,129.8l-15.4-5.4c-0.3,0-0.9-0.3-1.5,0c-1.2,0.6-0.3,4.8,1.2,5.1c3.3,1.2,6.9,2.1,10.2,3.3l-0.6,0.3
	c-2.7,0.9-5.7,2.1-8.4,3c-3.9,1.5-3.9,1.5-3.9,5.1c0,1.2,0.3,1.5,1.5,0.9c5.7-2.4,11.4-4.5,17.2-6.9c1.8-0.9,0.9-2.4,1.2-3.6
	C150.1,130.7,149.2,130.1,148.3,129.8z"/>
</svg>
